HIERARCHY
ROOT Hips
{
     OFFSET 1.88212 96.90440 -13.34250
     CHANNELS 6 Xposition Yposition Zposition Zrotation Xrotation Yrotation
     JOINT Spine
     {
          OFFSET 0.00000 11.89050 0.00000
          CHANNELS 3 Zrotation Xrotation Yrotation
          JOINT Spine1
          {
               OFFSET -0.00000 25.65740 0.12766
               CHANNELS 3 Zrotation Xrotation Yrotation
               JOINT HEad
               {
                    OFFSET 0.00000 8.73416 0.01134
                    CHANNELS 3 Zrotation Xrotation Yrotation
                    End Site
                    {
                         OFFSET -0.29000 12.77420 2.51395
                    }
               }
               JOINT LeftShoulder1
               {
                    OFFSET 8.99000 -0.36225 -0.22000
                    CHANNELS 3 Zrotation Xrotation Yrotation
                    JOINT LeftArm
                    {
                         OFFSET 10.28270 -0.00338 0.32212
                         CHANNELS 3 Zrotation Xrotation Yrotation
                         JOINT LeftForeArm
                         {
                              OFFSET 32.76690 0.09914 -1.42434
                              CHANNELS 3 Zrotation Xrotation Yrotation
                              JOINT LeftHand
                              {
                                   OFFSET 27.56430 0.08536 1.02216
                                   CHANNELS 3 Zrotation Xrotation Yrotation
                                   End Site
                                   {
                                        OFFSET 16.74430 -0.60000 1.50291
                                   }
                              }
                         }
                    }
               }
               JOINT RightShoulder
               {
                    OFFSET -8.99000 -0.36225 -0.22000
                    CHANNELS 3 Zrotation Xrotation Yrotation
                    JOINT RightArm
                    {
                         OFFSET -10.28270 -0.00338 0.32212
                         CHANNELS 3 Zrotation Xrotation Yrotation
                         JOINT RightForeArm
                         {
                              OFFSET -32.89710 0.09914 -1.42434
                              CHANNELS 3 Zrotation Xrotation Yrotation
                              JOINT RightHand
                              {
                                   OFFSET -27.49210 0.08536 1.02216
                                   CHANNELS 3 Zrotation Xrotation Yrotation
                                   End Site
                                   {
                                        OFFSET -16.63120 -0.60000 1.50291
                                   }
                              }
                         }
                    }
               }
          }
     }
     JOINT LeftUpLeg
     {
          OFFSET 8.94580 -8.66707 0.10165
          CHANNELS 3 Zrotation Xrotation Yrotation
          JOINT LeftLeg
          {
               OFFSET 0.00000 -44.42270 1.37270
               CHANNELS 3 Zrotation Xrotation Yrotation
               JOINT LeftFoot
               {
                    OFFSET -0.25355 -42.09240 -1.46059
                    CHANNELS 3 Zrotation Xrotation Yrotation
                    JOINT LeftToes
                    {
                         OFFSET -0.04000 -4.41509 8.49910
                         CHANNELS 3 Zrotation Xrotation Yrotation
                         End Site
                         {
                              OFFSET 0.08000 -0.04745 9.77979
                         }
                    }
               }
          }
     }
     JOINT RightUpLeg
     {
          OFFSET -8.94580 -8.66707 0.10165
          CHANNELS 3 Zrotation Xrotation Yrotation
          JOINT RightLeg
          {
               OFFSET 0.00000 -44.42270 1.37270
               CHANNELS 3 Zrotation Xrotation Yrotation
               JOINT RightFoot
               {
                    OFFSET 0.25355 -42.09240 -1.46059
                    CHANNELS 3 Zrotation Xrotation Yrotation
                    JOINT RightToes
                    {
                         OFFSET 0.04000 -4.41509 8.49910
                         CHANNELS 3 Zrotation Xrotation Yrotation
                         End Site
                         {
                              OFFSET -0.08000 -0.13745 9.77979
                         }
                    }
               }
          }
     }
}
MOTION
Frames: 15
Frame Time: 0.01667
-18.30099 91.23332 -59.52653 6.31990 8.53796 153.40300 -1.56142 16.18591 -0.07419 -0.03488 0.03577 0.07228 12.23250 9.33027 -29.59818 -4.88913 7.28103 14.33306 -126.74202 -50.60472 -114.73315 -69.24429 50.22200 -56.01780 19.31254 4.28866 -23.15804 -17.22083 3.50827 19.13886 24.55101 -62.37429 -20.79468 -2.00268 15.88134 77.98984 23.08772 28.60701 39.02600 -0.64025 -15.45843 -19.86826 -9.57076 5.32893 32.75464 21.67319 -0.00308 -0.00093 -17.11520 9.14388 -70.86405 -24.12254 16.80734 17.36044 49.52655 33.40495 -26.41136 -17.74435 0.02311 -0.00808 8.65788 -39.44518 14.30563 
-18.14613 91.28165 -59.41119 6.31880 8.99901 154.00809 -2.95099 18.35666 6.33592 -0.03066 0.03266 0.05772 12.37284 5.51836 -33.40405 -3.03305 6.18173 9.02293 -127.65825 -50.71004 -114.79455 -68.83247 50.94615 -57.53385 15.15844 2.03099 -21.36707 -23.32181 0.87093 24.51352 27.72558 -64.91116 -20.14752 -3.71271 16.73442 82.01363 38.51736 27.14633 30.65735 -1.01044 -14.89522 -19.09414 -9.34696 5.42915 31.64789 23.91034 -0.00313 -0.00008 -19.48039 9.13141 -71.02139 -23.80385 16.89859 17.38518 49.27211 32.60892 -27.21037 -17.58459 0.02198 -0.00636 8.56053 -39.87853 15.14234 
-18.01348 91.37251 -59.25079 6.38066 9.55003 154.49620 -4.78564 20.69412 13.47664 -0.03119 0.03871 0.05165 12.39362 1.44228 -37.83945 -1.16547 4.69846 3.32285 -127.89159 -50.29815 -114.36440 -69.18559 51.51921 -58.40369 17.15240 1.87957 -22.46553 -23.11620 1.20623 18.58109 42.57376 -61.80817 2.17493 -4.80360 17.80490 85.01702 26.16688 20.09430 35.53399 -1.31209 -14.29132 -18.29573 -9.20515 5.56688 30.68824 26.03914 -0.00297 0.00048 -21.69741 9.04496 -71.18259 -23.58543 17.05147 17.49633 49.15809 31.92837 -28.37460 -17.48821 0.02047 -0.00380 8.49479 -39.08834 15.18197 
-17.86921 91.48586 -59.04212 6.48466 10.16956 154.89844 -6.57299 22.55405 19.85563 -0.00466 -0.01316 -0.04876 11.91814 -1.85957 -41.71929 0.21427 3.56307 -1.31977 -127.65059 -49.42524 -113.61655 -69.95428 52.01315 -58.65662 15.05118 1.46580 -21.24981 -22.95349 1.73331 13.67442 53.04839 -56.80455 20.78880 -5.15333 19.01349 87.34512 33.94138 25.63783 28.01144 -1.53359 -13.67006 -17.49086 -9.11967 5.75411 29.86306 27.99766 -0.00265 0.00083 -23.74684 8.89619 -71.35584 -23.44913 17.26290 17.65802 49.15973 31.34310 -29.73799 -17.43658 0.01863 -0.00045 8.79493 -38.93257 16.31886 
-17.68624 91.60201 -58.79711 6.60884 10.82680 155.26022 -7.96180 23.67636 25.10167 -0.00051 -0.01247 -0.05183 11.10916 -4.14603 -45.09331 1.15380 3.11152 -4.91070 -127.09095 -48.19337 -112.69413 -70.91056 52.36362 -58.43353 16.47870 2.00067 -21.65975 -22.72508 2.67003 9.57345 59.41101 -50.60303 35.77573 -4.55084 19.72473 89.47390 29.28458 14.34294 30.78362 -1.67444 -13.05984 -16.70862 -9.06647 5.99879 29.15476 29.73844 -0.00217 0.00096 -25.61045 8.69159 -71.54896 -23.37230 17.53698 17.83230 49.23862 30.83319 -31.12331 -17.48226 0.01666 0.00313 9.28728 -38.44903 17.50093 
-17.44906 91.70520 -58.53260 6.73185 11.49332 155.63036 -8.90467 24.25795 29.17492 0.00154 -0.00883 -0.04741 10.14661 -5.51919 -47.82093 1.77873 3.29568 -7.43735 -126.37142 -46.73779 -111.70417 -71.91757 52.59122 -57.80375 15.36438 2.34688 -20.76095 -22.25117 3.87336 6.41562 63.07260 -43.90511 48.14234 -3.40059 20.25196 91.98822 27.86413 20.00493 26.74728 -1.74984 -12.48295 -15.97984 -9.02526 6.30395 28.54198 31.23340 -0.00155 0.00091 -27.26967 8.43910 -71.77881 -23.33676 17.87805 17.98549 49.38052 30.39119 -32.38350 -17.60452 0.01538 0.00630 9.99876 -38.05127 19.18389 
-17.15133 91.78817 -58.26906 6.83563 12.14460 156.04587 -9.42117 24.45883 32.11657 0.00238 -0.00332 -0.03962 9.16260 -6.15609 -49.84679 2.17942 3.99345 -8.99791 -125.60313 -45.26122 -110.74638 -72.85622 52.63987 -56.97670 16.29213 3.18059 -20.89936 -21.64032 5.18103 4.39274 65.48313 -37.22369 59.07894 -1.79423 20.68401 94.34690 28.70181 10.53945 26.23480 -1.78282 -11.95387 -15.32520 -8.98248 6.66772 28.00234 32.47359 -0.00083 0.00073 -28.71557 8.16284 -72.05839 -23.33133 18.28148 18.09485 49.56991 30.01715 -33.41346 -17.78889 0.01506 0.00853 10.80781 -37.46458 21.07195 
-16.79228 91.84999 -58.03091 6.90595 12.75739 156.52469 -9.57055 24.40686 34.01877 0.00504 0.00394 -0.02961 8.22270 -6.23174 -51.14130 2.41763 5.07005 -9.74680 -124.87149 -43.95642 -109.89008 -73.65434 52.53196 -56.10607 15.66725 3.74646 -20.27958 -20.87287 6.52523 3.58453 67.70272 -30.74158 69.22652 0.28340 21.42237 95.86243 20.69007 13.42575 23.30273 -1.79523 -11.48152 -14.75355 -8.93357 7.08203 27.51677 33.46564 -0.00002 0.00046 -29.94433 7.88994 -72.39686 -23.35062 18.73192 18.14906 49.79498 29.71207 -34.16383 -17.98462 0.01574 0.00951 11.65246 -36.77720 23.21067 
-16.37509 91.89500 -57.84517 6.93340 13.30752 157.06538 -9.43358 24.20002 34.99705 0.00956 0.01375 -0.01947 7.35222 -5.90929 -51.70170 2.52648 6.39342 -9.86980 -124.24710 -43.00057 -109.21191 -74.25970 52.26038 -55.35354 16.21605 4.48844 -20.38732 -19.95642 7.86653 3.80926 70.69189 -24.57905 78.47430 3.40597 22.35234 95.95316 28.58261 12.10971 22.65694 -1.80093 -11.07077 -14.26541 -8.88297 7.53231 27.07296 34.22675 0.00082 0.00013 -30.95695 7.63206 -72.79174 -23.39288 19.20710 18.14652 50.03798 29.47018 -34.63538 -18.16342 0.01687 0.00926 12.42403 -35.95675 25.40059 
-15.90696 91.93143 -57.73624 6.91649 13.77181 157.65112 -9.09863 23.90501 35.17161 0.01263 0.02144 -0.01127 6.56289 -5.32222 -51.55397 2.50392 7.85607 -9.51205 -123.74649 -42.48048 -108.71990 -74.69127 51.89545 -54.78006 15.87409 4.85856 -20.07865 -18.99407 9.18137 4.65864 75.74292 -19.37496 85.70549 3.93457 25.33664 93.98745 27.19811 14.91258 5.03172 -1.80190 -10.72211 -13.85671 -8.84167 7.99975 26.66637 34.77939 0.00161 -0.00024 -31.75856 7.37912 -73.22737 -23.47290 19.67859 18.09812 50.22872 29.29257 -34.84973 -18.31918 0.01773 0.00733 16.75630 -28.07161 44.86000 
-15.40927 91.96420 -57.71645 6.86594 14.13547 158.25412 -8.64933 23.56405 34.65282 0.01162 0.02471 -0.00665 5.86943 -4.57277 -50.74288 2.38126 9.36238 -8.82607 -123.41960 -42.40705 -108.42057 -74.95764 51.50656 -54.40887 16.23499 5.24234 -20.30568 -17.80079 10.47665 5.66794 78.41080 -16.82277 89.20565 6.42061 22.86355 88.87108 34.42304 16.59267 9.43912 -1.79096 -10.43135 -13.52025 -8.82220 8.46628 26.29989 35.14886 0.00225 -0.00069 -32.35767 7.11463 -73.67973 -23.58829 20.12767 18.01783 50.38783 29.15242 -34.89193 -18.37649 0.01854 0.00568 15.28420 -31.61042 36.35269 
-14.92352 91.99737 -57.78216 6.80500 14.39427 158.83968 -8.16881 23.20223 33.54512 0.00349 0.02491 -0.00455 5.30685 -3.74036 -49.32905 2.19060 10.83504 -7.95335 -123.28123 -42.69520 -108.28071 -75.05594 51.21672 -54.18957 16.10045 5.24855 -20.31748 -16.78231 11.67135 6.58017 83.19115 -17.19070 88.75026 7.40635 21.98175 84.94978 27.32115 14.97536 -6.22876 -1.75888 -10.19455 -13.24567 -8.83334 8.91755 25.98211 35.36315 0.00269 -0.00123 -32.76040 6.83309 -74.12549 -23.71506 20.54338 17.91960 50.57132 29.00280 -34.87925 -18.42987 0.01923 0.00449 16.03077 -29.38837 41.24431 
-14.49558 92.04299 -57.89069 6.76300 14.56597 159.37013 -8.39288 23.85365 31.65153 -0.00499 0.11748 -0.04946 4.93268 -4.10872 -46.67551 1.79569 10.97373 -6.24454 -123.26728 -43.16649 -108.17923 -75.02444 51.14500 -54.09328 16.36804 5.19375 -20.65524 -16.00682 11.34003 7.38100 88.37121 -19.64611 86.02392 7.03190 22.44751 82.65209 38.64112 21.57191 2.89279 -1.69931 -10.00646 -13.01813 -8.87981 9.34398 25.72492 35.44658 0.00300 -0.00189 -32.96342 6.54399 -74.54632 -23.86185 20.90800 17.83333 50.71643 28.85134 -34.88805 -18.55846 0.01930 0.00184 15.56646 -30.10219 39.33506 
-14.14582 92.09869 -57.99189 6.75302 14.73448 159.86607 -8.73201 24.75366 29.50123 -0.00568 0.03415 -0.02126 4.63279 -4.56425 -43.77710 1.35719 11.00998 -4.35156 -123.26768 -43.61815 -108.03354 -74.97557 51.18399 -54.02526 16.55150 5.05344 -20.92896 -15.52521 10.85321 8.06194 93.63517 -22.29680 83.35313 6.04231 23.07896 80.79208 40.80033 24.40890 8.02804 -1.63693 -9.79566 -12.80181 -8.90177 9.76166 25.48712 35.38689 0.00303 -0.00238 -33.00716 6.24844 -74.95321 -24.01583 21.24474 17.77378 50.86082 28.70493 -34.93676 -18.65446 0.00682 0.00029 15.20079 -30.32078 38.29687 
-13.89161 92.16383 -58.06517 6.79434 14.90126 160.30765 -9.12533 25.86754 27.08598 -0.00715 0.02751 -0.01895 4.43864 -5.29149 -40.52255 0.88464 10.75027 -2.28697 -123.31966 -44.08104 -107.87496 -74.92004 51.39225 -53.97716 16.61927 4.75064 -21.18721 -12.45314 11.61584 6.94514 96.30281 -23.83977 82.10764 5.50183 24.29156 79.97671 38.30476 23.91843 10.51466 -1.56614 -9.58282 -12.59192 -8.89231 10.13968 25.27614 35.20709 0.00330 -0.00308 -32.88113 5.99242 -75.34084 -24.17203 21.53570 17.75265 51.03173 28.57620 -35.06540 -18.72011 0.00621 -0.00023 14.83793 -30.24423 37.64527 
